<svg width="10" height="30" viewBox="0 0 10 30" fill="none" xmlns="http://www.w3.org/2000/svg">
<path d="M10 4.95747C10 3.64267 9.47325 2.38171 8.53557 1.45201C7.59789 0.522303 6.32608 0 5 0C3.67391 0 2.40215 0.522303 1.46447 1.45201C0.526783 2.38171 0 3.64267 0 4.95747V19.9484L4.11765 22.8736V30H5.88235V22.8736L10 19.9484V4.95747ZM8.23529 13.3414L5.88235 15.6744V13.4872L8.23529 11.1543V13.3414ZM1.80147 11.1543L4.15441 13.4872V15.6744L1.80147 13.3414V11.1543ZM8.23529 8.67558L5 11.8834L1.76471 8.60267V6.41555L5 9.62333L8.23529 6.41555V8.67558ZM5 1.7497C5.71153 1.75281 6.40242 1.98712 6.96682 2.4167C7.53125 2.84629 7.93805 3.44748 8.125 4.12819L5 7.2175L1.875 4.12819C2.05509 3.44071 2.45898 2.83136 3.02402 2.39472C3.58905 1.95807 4.28363 1.71852 5 1.71324V1.7497ZM1.76471 19.0644V15.7837L4.11765 18.1166V20.723L1.76471 19.0644ZM5.88235 20.7321V18.1166L8.23529 15.7837V19.0553L5.88235 20.7321Z" fill="#F3C962"/>
</svg>
